<?xml version="1.0" standalone="yes"?>
<svg xmlns="http://www.w3.org/2000/svg" width="274.414" height="99.826" viewBox="0 0 72.605 26.412" enable-background="new">
  <defs>
    <filter id="a" x="-.01" y="-.04" width="1.02" height="1.08" color-interpolation-filters="sRGB">
      <feGaussianBlur stdDeviation=".12" />
      <feBlend mode="screen" in2="BackgroundImage" result="result1" />
    </filter>
  </defs>
  <g font-weight="700" font-size="19.498" font-family="Bahnschrift" letter-spacing="0" word-spacing="0">
    <path
      style="line-height:1.25;-inkscape-font-specification:'Bahnschrift Bold'"
      d="M142.412 68.606c-.053.013 1.069.835-1.205 4.648-2.514 4.215-3.456 7.197-3.685 11.109-.231 3.962 1.7 7.796 1.7 7.796.216-3.059 1.538-5.998 2.623-9.072 0 0 1.843-5.882 1.913-9.19.071-3.307-1.346-5.291-1.346-5.291zm-11.056 4.742c-1.073 0-1.989.17-2.746.508-.757.331-1.335.817-1.733 1.455-.397.638-.596 1.407-.596 2.307v.01c0 1.014.212 1.799.635 2.354.422.55.937.935 1.543 1.159.606.217 1.37.399 2.29.546l.21.028c.018.006.034.01.046.01.02 0 .038.003.057.01.524.083.953.175 1.288.277.334.102.606.262.814.479.209.217.312.51.312.88v.01c0 .53-.233.941-.7 1.235-.467.287-1.123.431-1.97.431a6.602 6.602 0 01-2.14-.354 5.878 5.878 0 01-1.836-1.025l-1.202 2.164a6.96 6.96 0 001.477.938c.555.255 1.145.45 1.77.584a9.275 9.275 0 001.932.2v.001c1.104 0 2.048-.166 2.83-.498.79-.332 1.39-.813 1.8-1.445.41-.632.615-1.391.615-2.279v-.019c0-.944-.196-1.688-.587-2.23a3.354 3.354 0 00-1.468-1.188c-.58-.248-1.306-.46-2.177-.632l-.114-.019a.498.498 0 00-.104-.029.308.308 0 00-.076-.009l-.075-.019a13.268 13.268 0 01-1.411-.345 2.055 2.055 0 01-.843-.507c-.227-.236-.341-.556-.341-.958v-.009c0-.479.218-.849.654-1.11.435-.269 1.05-.403 1.846-.403.53 0 1.082.103 1.657.307.58.204 1.136.491 1.666.861l1.099-2.22a8.399 8.399 0 00-1.402-.786 8.099 8.099 0 00-1.515-.498 6.857 6.857 0 00-1.505-.172zm-35.277.134v13.93h3.114v-5.6h1.054l3.67 5.6h3.143l-3.858-5.74a3.508 3.508 0 002.241-1.833c.316-.632.473-1.363.473-2.192 0-.83-.157-1.558-.473-2.183a3.475 3.475 0 00-1.335-1.465c-.575-.344-1.24-.517-1.998-.517h-2.917zm-11.627.01v2.953h3.75V87.41h3.114V76.445h3.229v-2.953zm24.087 0v13.92h3.256v-13.92zm6.19 0v13.92h3.02v-5.4h2.69c.858 0 1.612-.175 2.262-.526A3.733 3.733 0 00124.226 80c.36-.644.54-1.39.54-2.24 0-.849-.18-1.595-.54-2.24a3.716 3.716 0 00-1.525-1.493c-.65-.358-1.404-.536-2.263-.536h-2.689zm29.972 0v2.953h3.749V87.41h3.114V76.445h3.23v-2.953zm-45.508 2.517h2.709c.271 0 .508.067.71.201.202.134.356.326.464.575.113.249.17.536.17.861a2.152 2.152 0 01-.18.862c-.107.249-.262.44-.464.575a1.238 1.238 0 01-.7.2h-2.71zm18.556.01h2.756c.315 0 .59.074.823.22.24.14.423.345.55.613.132.261.199.565.199.91 0 .337-.067.638-.2.9a1.49 1.49 0 01-.558.612 1.55 1.55 0 01-.814.21h-2.756z"
      fill="#00f"
      filter="url(#a)"
      transform="translate(-83.749 -66.806)"
    />
    <path
      style="line-height:1.25;-inkscape-font-specification:'Bahnschrift Bold'"
      d="M143.27 67.749c-.054.013 1.068.835-1.206 4.647-2.513 4.216-3.456 7.198-3.685 11.11-.231 3.962 1.701 7.796 1.701 7.796.215-3.059 1.538-5.999 2.622-9.072 0 0 1.843-5.882 1.914-9.19.07-3.307-1.347-5.291-1.347-5.291zm-11.057 4.742c-1.073 0-1.988.17-2.746.507-.757.332-1.335.817-1.732 1.456-.398.638-.597 1.406-.597 2.306v.01c0 1.015.212 1.8.635 2.355.423.549.937.935 1.543 1.159.606.217 1.37.399 2.291.545l.208.029c.02.006.035.01.047.01.02 0 .038.003.057.01.524.082.953.175 1.288.277.335.102.606.261.814.478.209.217.313.51.313.881v.01c0 .53-.234.941-.7 1.235-.468.287-1.124.43-1.97.43a6.602 6.602 0 01-2.14-.354 5.878 5.878 0 01-1.837-1.024l-1.202 2.164c.435.364.928.676 1.477.938.555.255 1.145.45 1.77.584a9.275 9.275 0 001.932.2v.001c1.105 0 2.048-.166 2.83-.498.79-.332 1.39-.813 1.8-1.445.41-.632.615-1.392.615-2.279v-.019c0-.944-.196-1.688-.587-2.23a3.354 3.354 0 00-1.468-1.188c-.58-.249-1.306-.46-2.177-.632l-.114-.019a.498.498 0 00-.104-.029.308.308 0 00-.076-.01l-.075-.018a13.27 13.27 0 01-1.411-.345 2.055 2.055 0 01-.843-.507c-.227-.237-.34-.556-.34-.958v-.01c0-.478.217-.848.653-1.11.435-.268 1.05-.402 1.846-.402.53 0 1.083.102 1.657.307.58.204 1.136.49 1.666.861l1.099-2.221a8.399 8.399 0 00-1.402-.785 8.099 8.099 0 00-1.514-.498 6.857 6.857 0 00-1.506-.172zm-35.277.134v13.93h3.114v-5.601h1.054l3.67 5.6h3.144l-3.859-5.739a3.508 3.508 0 002.241-1.834c.316-.631.474-1.362.474-2.192 0-.83-.158-1.557-.474-2.182a3.474 3.474 0 00-1.335-1.465c-.575-.345-1.24-.517-1.998-.517h-2.917zm-11.627.01v2.952h3.75v10.967h3.114V75.587h3.23v-2.952zm24.087 0v13.92h3.256v-13.92zm6.19 0v13.92h3.02v-5.4h2.69c.858 0 1.612-.176 2.263-.527a3.733 3.733 0 001.524-1.484c.36-.644.54-1.391.54-2.24 0-.849-.18-1.596-.54-2.24a3.716 3.716 0 00-1.524-1.494c-.65-.357-1.405-.535-2.263-.535h-2.69zm29.972 0v2.952h3.749v10.967h3.114V75.587h3.23v-2.952zm-45.508 2.517h2.709c.271 0 .508.067.71.201.202.134.357.326.464.575.113.249.17.536.17.861a2.152 2.152 0 01-.18.862c-.107.249-.262.44-.463.574a1.238 1.238 0 01-.701.201h-2.71zm18.556.01h2.756c.315 0 .59.073.823.22.24.14.424.344.55.613.132.261.199.564.199.909 0 .338-.067.639-.2.9a1.49 1.49 0 01-.558.613 1.55 1.55 0 01-.814.21h-2.756z"
      fill="red"
      filter="url(#a)"
      transform="translate(-83.749 -66.806)"
    />
    <path
      style="line-height:1.25;-inkscape-font-specification:'Bahnschrift Bold'"
      d="M142.84 68.177c-.052.013 1.07.835-1.204 4.648-2.514 4.216-3.457 7.197-3.685 11.11-.232 3.962 1.7 7.795 1.7 7.795.215-3.058 1.538-5.998 2.622-9.072 0 0 1.843-5.882 1.914-9.19.071-3.306-1.346-5.29-1.346-5.29zm-11.056 4.742c-1.073 0-1.988.17-2.745.508-.758.332-1.335.817-1.733 1.455-.398.638-.596 1.407-.596 2.307v.01c0 1.015.211 1.8.634 2.355.423.549.937.935 1.543 1.158.606.217 1.37.4 2.292.546l.208.028c.019.007.034.01.047.01.019 0 .038.004.057.01.524.083.953.175 1.287.277.335.103.607.262.815.479.208.217.312.51.312.88v.01c0 .53-.233.942-.7 1.235-.467.288-1.124.431-1.97.431a6.602 6.602 0 01-2.14-.354 5.878 5.878 0 01-1.836-1.024l-1.203 2.163c.436.364.928.677 1.477.938.556.256 1.146.45 1.77.584a9.275 9.275 0 001.932.201c1.105 0 2.049-.165 2.831-.497.79-.332 1.389-.814 1.8-1.446.41-.632.615-1.391.615-2.278v-.02c0-.944-.196-1.688-.587-2.23a3.354 3.354 0 00-1.468-1.187c-.58-.25-1.307-.46-2.178-.632l-.113-.02a.498.498 0 00-.104-.028.308.308 0 00-.076-.01l-.076-.019a13.27 13.27 0 01-1.41-.344 2.055 2.055 0 01-.843-.508c-.228-.236-.341-.555-.341-.957v-.01c0-.478.218-.848.653-1.11.436-.268 1.05-.402 1.846-.402.53 0 1.083.102 1.657.306.581.204 1.136.492 1.667.862l1.098-2.221a8.399 8.399 0 00-1.401-.785 8.099 8.099 0 00-1.515-.498 6.857 6.857 0 00-1.506-.173zm-35.277.134v13.93h3.114v-5.6h1.054l3.67 5.6h3.144l-3.858-5.739a3.508 3.508 0 002.24-1.834c.316-.632.474-1.362.474-2.192 0-.83-.158-1.557-.473-2.183a3.475 3.475 0 00-1.336-1.464c-.574-.345-1.24-.518-1.998-.518h-2.917zm-11.626.01v2.953h3.75v10.967h3.113V76.016h3.23v-2.953zm24.086 0v13.92h3.256v-13.92zm6.191 0v13.92h3.02v-5.4h2.689c.858 0 1.613-.175 2.263-.526a3.733 3.733 0 001.524-1.484c.36-.645.54-1.392.54-2.24 0-.85-.18-1.596-.54-2.24a3.716 3.716 0 00-1.524-1.494c-.65-.357-1.405-.536-2.263-.536h-2.69zm29.971 0v2.953h3.75v10.967h3.113V76.016h3.23v-2.953zm-45.508 2.518h2.71c.27 0 .507.067.71.2.201.135.356.327.463.575.114.25.17.536.17.862a2.152 2.152 0 01-.179.861c-.107.25-.262.441-.464.575a1.238 1.238 0 01-.7.201h-2.71zm18.557.01h2.755c.316 0 .59.073.824.22.24.14.423.344.55.612.132.262.198.565.198.91 0 .338-.066.638-.199.9a1.49 1.49 0 01-.558.612 1.55 1.55 0 01-.815.211h-2.755z"
      fill="#0f0"
      filter="url(#a)"
      transform="translate(-83.749 -66.806)"
    />
  </g>
</svg>
