<?xml version="1.0" encoding="UTF-8" standalone="no"?>
<svg
  xmlns:dc="http://purl.org/dc/elements/1.1/"
  xmlns:cc="http://creativecommons.org/ns#"
  xmlns:rdf="http://www.w3.org/1999/02/22-rdf-syntax-ns#"
  xmlns:svg="http://www.w3.org/2000/svg"
  xmlns="http://www.w3.org/2000/svg"
  xmlns:sodipodi="http://sodipodi.sourceforge.net/DTD/sodipodi-0.dtd"
  xmlns:inkscape="http://www.inkscape.org/namespaces/inkscape"
  width="72.605446mm"
  height="26.412266mm"
  viewBox="0 0 72.605446 26.412266"
  version="1.1"
  id="svg8"
  sodipodi:docname="logo-light.svg"
  style="enable-background:new"
  inkscape:version="0.92.4 (5da689c313, 2019-01-14)"
>
  <defs
     id="defs2">
    <filter
       style="color-interpolation-filters:sRGB"
       id="filter935"
       inkscape:label="additive"
       x="-0.01"
       y="-0.039999999"
       width="1.02"
       height="1.0800000000000001">
      <feGaussianBlur
         stdDeviation="0.12"
         id="feGaussianBlur959" />
      <feBlend
         mode="screen"
         in2="BackgroundImage"
         id="feBlend951"
         result="result1" />
    </filter>
  </defs>
  <sodipodi:namedview
     id="base"
     pagecolor="#ffffff"
     bordercolor="#666666"
     borderopacity="1.0"
     inkscape:pageopacity="0.0"
     inkscape:pageshadow="2"
     inkscape:zoom="3.959798"
     inkscape:cx="131.10561"
     inkscape:cy="24.463844"
     inkscape:document-units="mm"
     inkscape:current-layer="layer1"
     showgrid="false"
     inkscape:snap-bbox="true"
     inkscape:snap-page="true"
     inkscape:lockguides="true"
     inkscape:snap-global="false"
     inkscape:window-width="3440"
     inkscape:window-height="1377"
     inkscape:window-x="-8"
     inkscape:window-y="-8"
     inkscape:window-maximized="1"
     inkscape:pagecheckerboard="true" />
  <metadata
     id="metadata5">
    <rdf:RDF>
      <cc:Work
         rdf:about="">
        <dc:format>image/svg+xml</dc:format>
        <dc:type
           rdf:resource="http://purl.org/dc/dcmitype/StillImage" />
        <dc:title></dc:title>
      </cc:Work>
    </rdf:RDF>
  </metadata>
  <g
     inkscape:label="Layer 1"
     inkscape:groupmode="layer"
     id="layer1"
     transform="translate(-83.748605,-66.806433)"
     style="display:inline">
    <path
       inkscape:connector-curvature="0"
       style="font-style:normal;font-variant:normal;font-weight:bold;font-stretch:normal;font-size:19.49828339px;line-height:1.25;font-family:Bahnschrift;-inkscape-font-specification:'Bahnschrift Bold';letter-spacing:0px;word-spacing:0px;opacity:1;fill:#0000ff;fill-opacity:1;stroke:none;stroke-width:0.26458332;filter:url(#filter935)"
       d="m 142.41227,68.605724 c -0.0531,0.01329 1.06833,0.835225 -1.2051,4.647778 -2.51387,4.215796 -3.45662,7.197332 -3.68504,11.1094 -0.23137,3.962564 1.70067,7.795906 1.70067,7.795906 0.21499,-3.058675 1.53764,-5.998209 2.62207,-9.071797 0,0 1.8427,-5.882329 1.91358,-9.18962 0.0709,-3.307293 -1.34618,-5.291667 -1.34618,-5.291667 z m -11.05668,4.742346 c -1.07305,0 -1.98814,0.169197 -2.74557,0.507463 -0.75745,0.331883 -1.33507,0.81697 -1.73272,1.455208 -0.39765,0.638239 -0.59635,1.406921 -0.59635,2.306836 v 0.0098 c 0,1.014799 0.21168,1.799627 0.63459,2.354895 0.4229,0.548884 0.93712,0.935201 1.54306,1.158585 0.60596,0.217001 1.36978,0.399004 2.29134,0.545704 l 0.20825,0.02842 c 0.0189,0.0064 0.0344,0.0098 0.047,0.0098 0.019,0 0.0379,0.0034 0.0569,0.0098 0.52391,0.08297 0.95325,0.175384 1.28778,0.277502 0.33454,0.102118 0.60612,0.261523 0.81442,0.478524 0.20829,0.217001 0.31212,0.510388 0.31212,0.880566 v 0.0098 c 0,0.529737 -0.23313,0.941478 -0.70022,1.235067 -0.46709,0.287207 -1.12357,0.430981 -1.96938,0.430981 -0.73219,0 -1.44561,-0.118352 -2.13993,-0.3545 -0.69431,-0.24253 -1.30636,-0.583842 -1.83657,-1.024227 l -1.20251,2.163692 c 0.43552,0.363795 0.92777,0.676249 1.47692,0.937928 0.55545,0.255294 1.14554,0.449912 1.77043,0.583943 0.63119,0.134029 1.27521,0.201021 1.93166,0.201021 v 5.29e-4 c 1.1046,0 2.04815,-0.166277 2.83084,-0.49816 0.78899,-0.331885 1.38857,-0.813535 1.79886,-1.44539 0.41027,-0.631856 0.61545,-1.391263 0.61545,-2.278414 v -0.01912 c 0,-0.944591 -0.1957,-1.688369 -0.58704,-2.230871 -0.39135,-0.548886 -0.88058,-0.944478 -1.4676,-1.187008 -0.5807,-0.248913 -1.3066,-0.459679 -2.17765,-0.632003 -0.0379,-0.0064 -0.0758,-0.01272 -0.11369,-0.01912 -0.0316,-0.01275 -0.066,-0.02254 -0.10387,-0.02894 -0.0252,-0.0064 -0.0507,-0.0093 -0.076,-0.0093 -0.0252,-0.0064 -0.0502,-0.01272 -0.0754,-0.01912 -0.60596,-0.121266 -1.07623,-0.236182 -1.41076,-0.344682 -0.33454,-0.1085 -0.61562,-0.277697 -0.84286,-0.507463 -0.22723,-0.236148 -0.34105,-0.555475 -0.34105,-0.957564 v -0.0093 c 0,-0.478679 0.21818,-0.848849 0.6537,-1.110526 0.43552,-0.26806 1.05056,-0.402043 1.84589,-0.402043 0.5302,0 1.08286,0.102205 1.65726,0.306441 0.58071,0.204236 1.13584,0.491268 1.66605,0.861446 l 1.09864,-2.221053 c -0.44185,-0.306368 -0.90913,-0.56797 -1.40147,-0.784972 -0.49234,-0.217 -0.99705,-0.383277 -1.51463,-0.49816 -0.51128,-0.114882 -1.01352,-0.172083 -1.50585,-0.172083 z m -35.276891,0.133842 v 13.929383 h 3.11403 v -5.600176 h 1.054151 l 3.67006,5.600176 h 3.14348 l -3.85816,-5.738669 c 0.31915,-0.08607 0.61826,-0.212098 0.89607,-0.378788 0.5807,-0.344648 1.02902,-0.829735 1.34462,-1.455208 0.3156,-0.631855 0.47336,-1.362404 0.47336,-2.192114 0,-0.82971 -0.15776,-1.557339 -0.47336,-2.182813 -0.3156,-0.631856 -0.76093,-1.119861 -1.33532,-1.46451 -0.57439,-0.344648 -1.24037,-0.517281 -1.99781,-0.517281 h -2.91709 z m -11.62668,0.0098 v 2.952791 h 3.74964 v 10.966773 h 3.11403 V 76.444522 h 3.22926 v -2.952791 z m 24.086871,0 v 13.919564 h 3.25561 V 73.491731 Z m 6.19083,0 v 13.919564 h 3.01945 v -5.399154 h 2.68926 c 0.85843,0 1.61277,-0.175553 2.2629,-0.526583 0.65644,-0.351031 1.16467,-0.845909 1.52445,-1.484147 0.3598,-0.644621 0.53951,-1.391317 0.53951,-2.240174 0,-0.848855 -0.17971,-1.595551 -0.53951,-2.240173 -0.35978,-0.64462 -0.86801,-1.142417 -1.52445,-1.493449 -0.65013,-0.357413 -1.40447,-0.535884 -2.2629,-0.535884 h -2.68926 z m 29.97079,0 v 2.952791 h 3.74913 v 10.966773 h 3.11401 V 76.444522 h 3.22979 v -2.952791 z m -45.507781,2.517675 h 2.708831 c 0.27142,0 0.50805,0.06699 0.71004,0.201022 0.20198,0.134029 0.35675,0.325728 0.46405,0.574642 0.11362,0.248912 0.17054,0.535944 0.17054,0.861446 -0.006,0.325502 -0.0662,0.612533 -0.17984,0.861446 -0.1073,0.248912 -0.26207,0.440612 -0.46405,0.574642 -0.20199,0.13403 -0.43563,0.201021 -0.70074,0.201021 h -2.708831 z m 18.556441,0.0098 h 2.7554 c 0.3156,0 0.59018,0.07335 0.82373,0.220142 0.23985,0.140412 0.42307,0.344305 0.54932,0.612365 0.13254,0.261679 0.19894,0.564858 0.19894,0.909506 0,0.338266 -0.0664,0.638526 -0.19894,0.900203 -0.13257,0.261678 -0.31877,0.465571 -0.55864,0.612367 -0.23353,0.140412 -0.50512,0.210839 -0.81441,0.210839 h -2.7554 z"
       id="path842-0-1" />
    <path
       style="font-style:normal;font-variant:normal;font-weight:bold;font-stretch:normal;font-size:19.49828339px;line-height:1.25;font-family:Bahnschrift;-inkscape-font-specification:'Bahnschrift Bold';letter-spacing:0px;word-spacing:0px;opacity:1;fill:#ff0000;fill-opacity:1;stroke:none;stroke-width:0.26458332;filter:url(#filter935)"
       d="m 143.26948,67.748556 c -0.0532,0.01329 1.06833,0.835225 -1.20509,4.647778 -2.51387,4.215796 -3.45663,7.197331 -3.68505,11.109399 -0.23136,3.962564 1.70067,7.795907 1.70067,7.795907 0.21499,-3.058675 1.53763,-5.99821 2.62206,-9.071798 0,0 1.84271,-5.882329 1.91358,-9.189619 0.0709,-3.307293 -1.34617,-5.291667 -1.34617,-5.291667 z m -11.05669,4.742346 c -1.07304,0 -1.98813,0.169197 -2.74557,0.507463 -0.75744,0.331883 -1.33505,0.81697 -1.73271,1.455208 -0.39765,0.638238 -0.59634,1.406921 -0.59634,2.306836 v 0.0098 c 0,1.014799 0.21168,1.799628 0.63458,2.354895 0.42291,0.548885 0.93711,0.935202 1.54306,1.158586 0.60596,0.217001 1.36978,0.399004 2.29134,0.545703 l 0.20825,0.02842 c 0.0189,0.0064 0.0344,0.0098 0.047,0.0098 0.0189,0 0.0379,0.0034 0.0568,0.0098 0.5239,0.08297 0.95324,0.175385 1.28778,0.277503 0.33454,0.102117 0.60612,0.261522 0.81442,0.478523 0.20829,0.217001 0.31213,0.510389 0.31213,0.880567 v 0.0098 c 0,0.529738 -0.23314,0.941478 -0.70022,1.235067 -0.46709,0.287207 -1.12358,0.430981 -1.96939,0.430981 -0.73219,0 -1.4456,-0.118351 -2.13992,-0.3545 -0.69432,-0.24253 -1.30637,-0.583842 -1.83658,-1.024227 l -1.20251,2.163692 c 0.43553,0.363796 0.92777,0.67625 1.47691,0.937928 0.55546,0.255294 1.14555,0.449913 1.77043,0.583943 0.63121,0.13403 1.27522,0.201022 1.93167,0.201022 v 5.17e-4 c 1.1046,0 2.04814,-0.166278 2.83083,-0.498161 0.789,-0.331884 1.38858,-0.813535 1.79886,-1.44539 0.41028,-0.631856 0.61547,-1.391263 0.61547,-2.278414 v -0.01912 c 0,-0.944592 -0.1957,-1.688369 -0.58705,-2.230872 -0.39134,-0.548885 -0.88059,-0.944477 -1.46761,-1.187008 -0.5807,-0.248913 -1.30659,-0.459678 -2.17764,-0.632002 -0.0379,-0.0064 -0.0758,-0.01272 -0.11369,-0.01912 -0.0316,-0.01275 -0.066,-0.02254 -0.10387,-0.02894 -0.0252,-0.0064 -0.0507,-0.0093 -0.076,-0.0093 -0.0252,-0.0064 -0.0502,-0.01272 -0.0754,-0.01912 -0.60595,-0.121267 -1.07623,-0.236182 -1.41077,-0.344682 -0.33453,-0.1085 -0.61561,-0.277697 -0.84284,-0.507463 -0.22724,-0.236148 -0.34107,-0.555475 -0.34107,-0.957564 v -0.0093 c 0,-0.478679 0.21818,-0.848849 0.65371,-1.110526 0.43553,-0.26806 1.05057,-0.402043 1.84588,-0.402043 0.53021,0 1.08288,0.102205 1.65727,0.306441 0.5807,0.204236 1.13584,0.491268 1.66604,0.861446 l 1.09864,-2.221053 c -0.44184,-0.306361 -0.90912,-0.567963 -1.40146,-0.784965 -0.49234,-0.217 -0.99705,-0.383277 -1.51464,-0.49816 -0.51127,-0.114882 -1.01351,-0.172083 -1.50585,-0.172083 z m -35.276919,0.133842 v 13.929382 h 3.114029 v -5.600175 h 1.0542 l 3.67006,5.600175 h 3.14348 l -3.85817,-5.738668 c 0.31915,-0.08607 0.61827,-0.212098 0.89607,-0.378788 0.58071,-0.344648 1.02902,-0.829735 1.34462,-1.455208 0.3156,-0.631856 0.47336,-1.362405 0.47336,-2.192114 0,-0.82971 -0.15776,-1.55734 -0.47336,-2.182813 -0.3156,-0.631856 -0.76092,-1.119861 -1.33532,-1.46451 -0.57439,-0.344648 -1.24037,-0.517281 -1.9978,-0.517281 h -2.91714 z m -11.62668,0.0098 v 2.952791 h 3.749642 v 10.966772 h 3.114022 V 75.587354 h 3.22926 v -2.952791 z m 24.086909,0 v 13.919563 h 3.25561 V 72.634563 Z m 6.19084,0 v 13.919563 h 3.01945 v -5.399153 h 2.68924 c 0.85843,0 1.61278,-0.175553 2.26291,-0.526583 0.65645,-0.351032 1.16467,-0.84591 1.52446,-1.484147 0.35978,-0.644621 0.5395,-1.391317 0.5395,-2.240174 0,-0.848856 -0.17972,-1.595552 -0.5395,-2.240173 -0.35979,-0.64462 -0.86801,-1.142418 -1.52446,-1.493449 -0.65013,-0.357413 -1.40448,-0.535884 -2.26291,-0.535884 h -2.68924 z m 29.97077,0 v 2.952791 h 3.74913 v 10.966772 h 3.11402 V 75.587354 h 3.22978 v -2.952791 z m -45.50781,2.517675 h 2.70888 c 0.27141,0 0.50805,0.06699 0.71003,0.201022 0.20199,0.134029 0.35675,0.325728 0.46406,0.574641 0.11361,0.248913 0.17053,0.535945 0.17053,0.861447 -0.006,0.325501 -0.0662,0.612533 -0.17984,0.861446 -0.1073,0.248912 -0.26207,0.440612 -0.46405,0.574642 -0.20198,0.13403 -0.43563,0.201021 -0.70073,0.201021 h -2.70888 z m 18.55649,0.0098 h 2.75539 c 0.3156,0 0.59018,0.07335 0.82372,0.220141 0.23986,0.140413 0.42308,0.344306 0.54932,0.612366 0.13255,0.261678 0.19895,0.564857 0.19895,0.909505 0,0.338267 -0.0664,0.638526 -0.19895,0.900204 -0.13255,0.261678 -0.31877,0.465571 -0.55862,0.612365 -0.23355,0.140412 -0.50513,0.21084 -0.81442,0.21084 h -2.75539 z"
       id="path842"
       inkscape:connector-curvature="0" />
    <path
       inkscape:connector-curvature="0"
       style="font-style:normal;font-variant:normal;font-weight:bold;font-stretch:normal;font-size:19.49828339px;line-height:1.25;font-family:Bahnschrift;-inkscape-font-specification:'Bahnschrift Bold';letter-spacing:0px;word-spacing:0px;opacity:1;fill:#00ff00;fill-opacity:1;stroke:none;stroke-width:0.26458332;filter:url(#filter935)"
       d="m 142.84088,68.17714 c -0.0531,0.01329 1.06832,0.835225 -1.2051,4.647778 -2.51387,4.215796 -3.45662,7.197332 -3.68504,11.1094 -0.23137,3.962564 1.70067,7.795906 1.70067,7.795906 0.21499,-3.058675 1.53763,-5.998209 2.62206,-9.071797 0,0 1.84271,-5.882329 1.91358,-9.18962 0.0709,-3.307293 -1.34617,-5.291667 -1.34617,-5.291667 z m -11.05669,4.742346 c -1.07304,0 -1.98813,0.169197 -2.74557,0.507463 -0.75744,0.331883 -1.33506,0.81697 -1.73271,1.455208 -0.39766,0.638239 -0.59635,1.406921 -0.59635,2.306836 v 0.0098 c 0,1.014799 0.21168,1.799627 0.63459,2.354895 0.4229,0.548884 0.93711,0.935201 1.54306,1.158585 0.60595,0.217001 1.36978,0.399004 2.29133,0.545704 l 0.20826,0.02842 c 0.0189,0.0064 0.0344,0.0098 0.047,0.0098 0.019,0 0.0379,0.0034 0.0569,0.0098 0.5239,0.08297 0.95324,0.175384 1.28778,0.277502 0.33453,0.102118 0.60612,0.261523 0.81441,0.478524 0.2083,0.217001 0.31213,0.510388 0.31213,0.880566 v 0.0098 c 0,0.529737 -0.23313,0.941478 -0.70022,1.235067 -0.46709,0.287207 -1.12358,0.430981 -1.96939,0.430981 -0.73219,0 -1.4456,-0.118352 -2.13992,-0.3545 -0.69432,-0.24253 -1.30637,-0.583842 -1.83658,-1.024227 l -1.20251,2.163692 c 0.43553,0.363795 0.92777,0.676249 1.47692,0.937928 0.55546,0.255294 1.14554,0.449912 1.77043,0.583943 0.6312,0.134029 1.27521,0.201021 1.93166,0.201021 v 5.29e-4 c 1.10461,0 2.04815,-0.166277 2.83084,-0.49816 0.789,-0.331885 1.38858,-0.813535 1.79886,-1.44539 0.41028,-0.631856 0.61546,-1.391263 0.61546,-2.278414 v -0.01912 c 0,-0.944591 -0.1957,-1.688369 -0.58704,-2.230871 -0.39135,-0.548886 -0.88059,-0.944478 -1.46761,-1.187008 -0.5807,-0.248913 -1.30659,-0.459679 -2.17765,-0.632003 -0.0379,-0.0064 -0.0758,-0.01272 -0.11368,-0.01912 -0.0316,-0.01275 -0.066,-0.02254 -0.10388,-0.02894 -0.0252,-0.0064 -0.0507,-0.0093 -0.076,-0.0093 -0.0252,-0.0064 -0.0502,-0.01272 -0.0754,-0.01912 -0.60595,-0.121266 -1.07622,-0.236182 -1.41076,-0.344682 -0.33454,-0.1085 -0.61561,-0.277697 -0.84285,-0.507463 -0.22723,-0.236148 -0.34106,-0.555475 -0.34106,-0.957564 v -0.0093 c 0,-0.478679 0.21818,-0.848849 0.65371,-1.110526 0.43552,-0.26806 1.05056,-0.402043 1.84588,-0.402043 0.53021,0 1.08287,0.102205 1.65726,0.306441 0.58071,0.204236 1.13584,0.491268 1.66605,0.861446 l 1.09864,-2.221053 c -0.44184,-0.306368 -0.90913,-0.56797 -1.40146,-0.784972 -0.49234,-0.217 -0.99706,-0.383277 -1.51464,-0.49816 -0.51127,-0.114882 -1.01351,-0.172083 -1.50585,-0.172083 z m -35.276903,0.133842 v 13.929383 h 3.114026 v -5.600176 h 1.054177 l 3.67006,5.600176 h 3.14348 l -3.85816,-5.738669 c 0.31915,-0.08607 0.61826,-0.212098 0.89607,-0.378788 0.5807,-0.344648 1.02902,-0.829735 1.34462,-1.455208 0.3156,-0.631855 0.47336,-1.362404 0.47336,-2.192114 0,-0.82971 -0.15776,-1.557339 -0.47336,-2.182813 -0.3156,-0.631856 -0.76093,-1.119861 -1.33532,-1.46451 -0.57439,-0.344648 -1.24037,-0.517281 -1.99781,-0.517281 h -2.917117 z m -11.62668,0.0098 v 2.952791 h 3.749642 v 10.966773 h 3.114022 V 76.015938 h 3.22926 v -2.952791 z m 24.086893,0 v 13.919564 h 3.25561 V 73.063147 Z m 6.19083,0 v 13.919564 h 3.01945 v -5.399154 h 2.68925 c 0.85843,0 1.61277,-0.175553 2.26291,-0.526583 0.65644,-0.351031 1.16467,-0.845909 1.52445,-1.484147 0.35979,-0.644621 0.5395,-1.391317 0.5395,-2.240174 0,-0.848855 -0.17971,-1.595551 -0.5395,-2.240173 -0.35978,-0.64462 -0.86801,-1.142417 -1.52445,-1.493449 -0.65014,-0.357413 -1.40448,-0.535884 -2.26291,-0.535884 h -2.68925 z m 29.97078,0 v 2.952791 h 3.74913 v 10.966773 h 3.11402 V 76.015938 h 3.22978 v -2.952791 z m -45.507797,2.517675 h 2.708857 c 0.27142,0 0.50805,0.06699 0.71004,0.201022 0.20198,0.134029 0.35675,0.325728 0.46405,0.574642 0.11362,0.248912 0.17054,0.535944 0.17054,0.861446 -0.006,0.325502 -0.0662,0.612533 -0.17984,0.861446 -0.1073,0.248912 -0.26207,0.440612 -0.46405,0.574642 -0.20199,0.13403 -0.43563,0.201021 -0.70074,0.201021 h -2.708857 z m 18.556467,0.0098 h 2.75539 c 0.3156,0 0.59018,0.07335 0.82373,0.220142 0.23985,0.140412 0.42308,0.344305 0.54932,0.612365 0.13255,0.261679 0.19895,0.564858 0.19895,0.909506 0,0.338266 -0.0664,0.638526 -0.19895,0.900203 -0.13256,0.261678 -0.31877,0.465571 -0.55863,0.612366 -0.23354,0.140412 -0.50513,0.21084 -0.81442,0.21084 h -2.75539 z"
       id="path842-0" />
  </g>
  <g
     inkscape:groupmode="layer"
     id="layer2"
     inkscape:label="G"
     transform="translate(-70.897414,-14.407427)" />
  <g
     inkscape:groupmode="layer"
     id="layer3"
     inkscape:label="R"
     transform="translate(-70.897414,-14.407427)" />
</svg>
